# xmcd CD database file
#
# Track frame offsets:
#	150
#	13051
#	27578
#	40455
#	51448
#	61465
#	73808
#	84499
#	103514
#	119412
#
# Disc length: 1735 seconds
#
# Revision: 1
# Processed by: cddbd v1.5.1PL0 Copyright (c) Steve Scherf et al.
# Submitted via: CDex 1.51
#
DISCID=9006c50a
DTITLE=Ramón Ayala and sus Bravos del Norte and Los Mas Grandes Grupos del Norte - Fiesta Norteña Serie de Oro
DYEAR=2004
DGENRE=Ranchero
TTITLE0=Ramón Ayala and sus Bravos del Norte - Quisiera Ser Pajarillo
TTITLE1=Los Alegres de Terán - Cuatro Espadas
TTITLE2=Luis and Julián - El Penal de La Loma
TTITLE3=Pedro Yerena and Juan Montoya - Amor de Madre
TTITLE4=Ramón Ayala and sus Bravos del Norte - Esta Vez Si Me Voy A Matar
TTITLE5=Los Humildes - Besitos
TTITLE6=Los Alegres de Terán - Ingratos Ojos Mios
TTITLE7=Los Relampagos del Norte - Carta Jugada
TTITLE8=Los Montañeses del Alamo - Benjamín Argumedo
TTITLE9=Ramón Ayala and sus Bravos del Norte - Yo Aqui
EXTD=YEAR: 2004
EXTT0=
EXTT1=
EXTT2=
EXTT3=
EXTT4=
EXTT5=
EXTT6=
EXTT7=
EXTT8=
EXTT9=
PLAYORDER=
